<svg width="47" height="66" viewBox="0 0 47 66" fill="none" xmlns="http://www.w3.org/2000/svg">
<path d="M22.7623 57.3285C21.513 57.1143 20.2733 56.8003 19.1057 56.4053C17.448 55.8438 15.992 54.7969 14.3487 54.1449C10.6489 52.6698 8.61156 49.1198 8.06859 45.3034C7.78029 43.3001 8.4578 40.916 7.78029 39.0125C7.27096 37.5707 5.95919 36.3715 5.23364 35.0201C3.24917 31.3274 2.55725 26.9399 3.41735 22.8333C4.3351 18.441 7.00668 14.4533 10.6729 11.8408C11.6339 11.1556 12.7967 10.518 13.6328 9.68996C14.3151 9.01423 14.7716 8.18623 15.4731 7.50575C17.2221 5.81168 19.2066 4.20803 21.5707 3.4752C25.0159 2.41403 28.8647 3.40382 31.863 5.39768C35.0391 7.51051 37.5665 10.4656 38.8639 14.0203C40.3054 17.9747 43.5584 20.8394 43.9091 25.2554C44.1302 28.0344 43.2557 30.7849 42.1457 33.345C41.2087 35.5054 40.0027 37.5279 39.2531 39.7501C38.417 42.2294 38.0182 44.7181 37.5377 47.283C37.038 49.9574 36.2355 52.7078 34.3376 54.6636C32.233 56.8336 29.0424 57.6996 26.0105 57.6378C24.9438 57.6187 23.8482 57.5093 22.7623 57.3285Z" fill="#72CC72" stroke="#38B038" stroke-width="4.3847" stroke-miterlimit="10"/>
<path d="M26.7984 62.9532H19.8408L23.3196 11.9741L26.7984 62.9532Z" fill="white" stroke="#38B038" stroke-width="4.3847" stroke-miterlimit="10"/>
<path d="M13.9338 23.795L12.1401 24.8943L20.6482 38.5099L22.4418 37.4107L13.9338 23.795Z" fill="#38B038"/>
<path d="M35.0394 28.5682L24.5007 40.0265L26.0567 41.43L36.5953 29.9718L35.0394 28.5682Z" fill="#38B038"/>
<path d="M32.1149 20.3567L23.7444 27.6691L25.1398 29.2356L33.5102 21.9232L32.1149 20.3567Z" fill="#38B038"/>
<path d="M19.5963 17.1548L17.8069 18.2522L21.6169 24.3451L23.4062 23.2478L19.5963 17.1548Z" fill="#38B038"/>
<path d="M16.4985 39.529L14.6602 40.5436L19.6868 49.4762L21.5252 48.4616L16.4985 39.529Z" fill="#38B038"/>
</svg>
