<svg width="67" height="77" viewBox="0 0 67 77" fill="none" xmlns="http://www.w3.org/2000/svg">
<g clip-path="url(#clip0_2_461)">
<path d="M55.0163 53.5728L48.1265 60.4626L11.5376 23.8697L18.4274 16.9798C28.5309 6.87635 44.9169 6.87635 55.0204 16.9798C65.1238 27.0873 65.1238 43.4693 55.0163 53.5728Z" fill="#96844A" stroke="#635831" stroke-width="2" stroke-miterlimit="10"/>
<path d="M48.5707 60.0164C58.675 49.912 58.675 33.5296 48.5707 23.4253C38.4663 13.3209 22.0839 13.3209 11.9795 23.4253C1.87516 33.5296 1.87516 49.912 11.9795 60.0164C22.0839 70.1208 38.4663 70.1207 48.5707 60.0164Z" fill="#72CC72" stroke="#38B038" stroke-width="2" stroke-miterlimit="10"/>
<path d="M30.2765 52.5311C36.2474 52.5311 41.0879 47.6907 41.0879 41.7197C41.0879 35.7487 36.2474 30.9083 30.2765 30.9083C24.3055 30.9083 19.4651 35.7487 19.4651 41.7197C19.4651 47.6907 24.3055 52.5311 30.2765 52.5311Z" fill="white"/>
<path d="M31.101 28.1814C31.101 28.668 30.2764 29.7017 30.2764 29.7017C30.2764 29.7017 29.4519 28.668 29.4519 28.1814C29.4519 27.6947 29.8219 27.3005 30.2764 27.3005C30.7309 27.3005 31.101 27.6947 31.101 28.1814Z" fill="#333333"/>
<path d="M29.4558 55.262C29.4558 54.7754 30.2803 53.7417 30.2803 53.7417C30.2803 53.7417 31.1048 54.7754 31.1048 55.262C31.1048 55.7487 30.7348 56.1429 30.2803 56.1429C29.8218 56.1429 29.4558 55.7487 29.4558 55.262Z" fill="#333333"/>
<path d="M24.2029 29.577C24.4443 29.9993 24.2512 31.3065 24.2512 31.3065C24.2512 31.3065 23.0204 30.8198 22.7791 30.4015C22.5338 29.9792 22.6584 29.4563 23.0526 29.2271C23.4428 29.0018 23.9576 29.1587 24.2029 29.577Z" fill="#333333"/>
<path d="M36.3537 53.8624C36.1124 53.4401 36.3055 52.1329 36.3055 52.1329C36.3055 52.1329 37.5362 52.6196 37.7776 53.0379C38.0189 53.4602 37.8982 53.9871 37.5041 54.2124C37.1099 54.4416 36.5951 54.2847 36.3537 53.8624Z" fill="#333333"/>
<path d="M18.9581 34.2225C19.3804 34.4639 19.8631 35.6946 19.8631 35.6946C19.8631 35.6946 18.5559 35.8917 18.1336 35.6463C17.7113 35.405 17.5544 34.8862 17.7837 34.492C18.0089 34.0978 18.5358 33.9772 18.9581 34.2225Z" fill="#333333"/>
<path d="M41.5985 49.2209C41.1762 48.9796 40.6935 47.7488 40.6935 47.7488C40.6935 47.7488 42.0007 47.5517 42.423 47.7971C42.8454 48.0384 43.0022 48.5573 42.773 48.9514C42.5437 49.3416 42.0168 49.4663 41.5985 49.2209Z" fill="#333333"/>
<path d="M16.738 40.8992C17.2247 40.8992 18.2583 41.7237 18.2583 41.7237C18.2583 41.7237 17.2247 42.5482 16.738 42.5482C16.2513 42.5482 15.8571 42.1782 15.8571 41.7237C15.8571 41.2652 16.2513 40.8992 16.738 40.8992Z" fill="#333333"/>
<path d="M43.8147 42.5442C43.328 42.5442 42.2943 41.7197 42.2943 41.7197C42.2943 41.7197 43.328 40.8951 43.8147 40.8951C44.3014 40.8951 44.6955 41.2652 44.6955 41.7197C44.6955 42.1742 44.3014 42.5442 43.8147 42.5442Z" fill="#333333"/>
<path d="M18.1336 47.7972C18.5559 47.5558 19.8631 47.7489 19.8631 47.7489C19.8631 47.7489 19.3765 48.9797 18.9582 49.221C18.5358 49.4663 18.0089 49.3416 17.7837 48.9475C17.5544 48.5573 17.7153 48.0385 18.1336 47.7972Z" fill="#333333"/>
<path d="M42.4189 35.6464C41.9966 35.8877 40.6894 35.6946 40.6894 35.6946C40.6894 35.6946 41.1761 34.4639 41.5944 34.2225C42.0167 33.9812 42.5396 34.1019 42.7688 34.496C42.9981 34.8862 42.8412 35.405 42.4189 35.6464Z" fill="#333333"/>
<path d="M22.775 53.0419C23.0163 52.6196 24.2471 52.137 24.2471 52.137C24.2471 52.137 24.4442 53.4441 24.1988 53.8665C23.9575 54.2888 23.4386 54.4456 23.0445 54.2164C22.6543 53.9871 22.5337 53.4602 22.775 53.0419Z" fill="#333333"/>
<path d="M37.7775 30.4015C37.5362 30.8238 36.3055 31.3065 36.3055 31.3065C36.3055 31.3065 36.1084 29.9993 36.3537 29.577C36.5951 29.1547 37.1139 28.9978 37.5081 29.2271C37.8982 29.4563 38.0189 29.9792 37.7775 30.4015Z" fill="#333333"/>
<path d="M18.6607 28.9497C19.0026 29.2916 19.1514 30.5947 19.1514 30.5947C19.1514 30.5947 17.8483 30.4459 17.5064 30.104C17.1645 29.7621 17.1484 29.2272 17.4662 28.9095C17.7839 28.5917 18.3188 28.6078 18.6607 28.9497Z" fill="#333333"/>
<path d="M41.8922 54.4939C41.5504 54.152 41.4016 52.8489 41.4016 52.8489C41.4016 52.8489 42.7047 52.9977 43.0466 53.3396C43.3885 53.6814 43.4045 54.2164 43.0868 54.5341C42.7691 54.8519 42.2341 54.8358 41.8922 54.4939Z" fill="#333333"/>
<path d="M13.8946 36.4508C14.3612 36.5755 15.1415 37.6293 15.1415 37.6293C15.1415 37.6293 13.9389 38.1521 13.4723 38.0274C13.0058 37.9028 12.7242 37.4483 12.8409 37.0139C12.9535 36.5755 13.4281 36.3261 13.8946 36.4508Z" fill="#333333"/>
<path d="M46.6625 46.9927C46.1959 46.868 45.4156 45.8143 45.4156 45.8143C45.4156 45.8143 46.6182 45.2914 47.0848 45.4161C47.5513 45.5408 47.8329 45.9952 47.7162 46.4296C47.5996 46.868 47.129 47.1174 46.6625 46.9927Z" fill="#333333"/>
<path d="M13.4682 45.4161C13.9348 45.2914 15.1374 45.8143 15.1374 45.8143C15.1374 45.8143 14.3571 46.868 13.8905 46.9927C13.424 47.1174 12.9534 46.864 12.8367 46.4296C12.7201 45.9952 13.0057 45.5408 13.4682 45.4161Z" fill="#333333"/>
<path d="M47.0848 38.0275C46.6182 38.1522 45.4156 37.6293 45.4156 37.6293C45.4156 37.6293 46.1959 36.5755 46.6625 36.4509C47.129 36.3262 47.5996 36.5796 47.7162 37.0139C47.8329 37.4483 47.5513 37.9028 47.0848 38.0275Z" fill="#333333"/>
<path d="M17.5064 53.3396C17.8483 52.9977 19.1514 52.8489 19.1514 52.8489C19.1514 52.8489 19.0026 54.152 18.6607 54.4939C18.3188 54.8358 17.7839 54.8519 17.4662 54.5341C17.1484 54.2164 17.1645 53.6774 17.5064 53.3396Z" fill="#333333"/>
<path d="M43.0467 30.104C42.7089 30.4459 41.4057 30.5947 41.4057 30.5947C41.4057 30.5947 41.5545 29.2916 41.8964 28.9497C42.2383 28.6078 42.7732 28.5917 43.091 28.9095C43.4087 29.2272 43.3886 29.7621 43.0467 30.104Z" fill="#333333"/>
<path d="M25.0036 58.1057C25.1283 57.6392 26.1821 56.8589 26.1821 56.8589C26.1821 56.8589 26.7049 58.0615 26.5802 58.5281C26.4556 58.9946 26.0011 59.2762 25.5667 59.1595C25.1323 59.0469 24.8789 58.5723 25.0036 58.1057Z" fill="#333333"/>
<path d="M35.5496 25.3377C35.4249 25.8043 34.3711 26.5845 34.3711 26.5845C34.3711 26.5845 33.8483 25.3819 33.973 24.9154C34.0976 24.4488 34.5521 24.1673 34.9865 24.2839C35.4209 24.3965 35.6743 24.8711 35.5496 25.3377Z" fill="#333333"/>
<path d="M33.973 58.528C33.8483 58.0615 34.3711 56.8589 34.3711 56.8589C34.3711 56.8589 35.4249 57.6392 35.5496 58.1057C35.6743 58.5723 35.4209 59.0429 34.9865 59.1595C34.5521 59.2802 34.0976 58.9946 33.973 58.528Z" fill="#333333"/>
<path d="M26.5841 24.9155C26.7088 25.382 26.1859 26.5847 26.1859 26.5847C26.1859 26.5847 25.1321 25.8044 25.0074 25.3378C24.8827 24.8712 25.1361 24.4007 25.5705 24.284C26.0049 24.1634 26.4594 24.4489 26.5841 24.9155Z" fill="#333333"/>
</g>
<defs>
<clipPath id="clip0_2_461">
<rect width="67" height="77" fill="white"/>
</clipPath>
</defs>
</svg>
