
<svg width="92" height="47" viewBox="0 0 92 47" fill="none" xmlns="http://www.w3.org/2000/svg">
<path fill-rule="evenodd" clip-rule="evenodd" d="M0 47H45V27H0V47Z" fill="#FFB000"/>
<path fill-rule="evenodd" clip-rule="evenodd" d="M9.5022 33.1329C9.5022 31.7674 8.39033 30.6611 7.01881 30.6611C5.64849 30.6611 4.53662 31.7674 4.53662 33.1329C4.53662 34.4983 5.64849 35.6052 7.01881 35.6052C8.39033 35.6052 9.5022 34.4983 9.5022 33.1329Z" fill="#FFD74F"/>
<path fill-rule="evenodd" clip-rule="evenodd" d="M18.1058 38.8185C18.1058 37.4531 16.994 36.3462 15.6224 36.3462C14.2515 36.3462 13.1396 37.4531 13.1396 38.8185C13.1396 40.1839 14.2515 41.2902 15.6224 41.2902C16.994 41.2902 18.1058 40.1839 18.1058 38.8185Z" fill="#FFD74F"/>
<path fill-rule="evenodd" clip-rule="evenodd" d="M9.5022 42.7736C9.5022 41.4082 8.39033 40.3013 7.01881 40.3013C5.64849 40.3013 4.53662 41.4082 4.53662 42.7736C4.53662 44.139 5.64849 45.2453 7.01881 45.2453C8.39033 45.2453 9.5022 44.139 9.5022 42.7736Z" fill="#FFD74F"/>
<path fill-rule="evenodd" clip-rule="evenodd" d="M23.2577 31.5264C23.2577 30.161 22.1458 29.0547 20.7743 29.0547C19.4034 29.0547 18.2915 30.161 18.2915 31.5264C18.2915 32.8918 19.4034 33.9981 20.7743 33.9981C22.1458 33.9981 23.2577 32.8918 23.2577 31.5264Z" fill="#FFD74F"/>
<path fill-rule="evenodd" clip-rule="evenodd" d="M39.8711 33.9981C39.8711 32.6333 38.7592 31.5264 37.3877 31.5264C36.0168 31.5264 34.9049 32.6333 34.9049 33.9981C34.9049 35.3635 36.0168 36.4704 37.3877 36.4704C38.7592 36.4704 39.8711 35.3635 39.8711 33.9981Z" fill="#FFD74F"/>
<path fill-rule="evenodd" clip-rule="evenodd" d="M29.3654 40.6109C29.3654 39.2455 28.2535 38.1392 26.882 38.1392C25.5116 38.1392 24.3998 39.2455 24.3998 40.6109C24.3998 41.9763 25.5116 43.0832 26.882 43.0832C28.2535 43.0832 29.3654 41.9763 29.3654 40.6109Z" fill="#FFD74F"/>
<path fill-rule="evenodd" clip-rule="evenodd" d="M33.4 27.4082H28.4344C28.4344 28.773 29.5457 29.8799 30.9166 29.8799C32.2882 29.8799 33.4 28.773 33.4 27.4082Z" fill="#FFD74F"/>
<path fill-rule="evenodd" clip-rule="evenodd" d="M39.2345 43.7619C39.2345 42.3965 38.1232 41.2896 36.7517 41.2896C35.3808 41.2896 34.2689 42.3965 34.2689 43.7619C34.2689 45.1273 35.3808 46.2336 36.7517 46.2336C38.1232 46.2336 39.2345 45.1273 39.2345 43.7619Z" fill="#FFD74F"/>
<path fill-rule="evenodd" clip-rule="evenodd" d="M0 27.4245H44.617L34.9049 20.7197L0 27.4245Z" fill="#FFD74F"/>
<mask id="mask0_2_861" style="mask-type:luminance" maskUnits="userSpaceOnUse" x="0" y="0" width="92" height="47">
<path fill-rule="evenodd" clip-rule="evenodd" d="M0 46.9999H91.9504V0.257812H0V46.9999Z" fill="white"/>
</mask>
<g mask="url(#mask0_2_861)">
<path fill-rule="evenodd" clip-rule="evenodd" d="M47.334 46.9997H91.9504V27.4248H47.334V46.9997Z" fill="#FFB000"/>
<path fill-rule="evenodd" clip-rule="evenodd" d="M59.9087 33.1329C59.9087 31.7674 58.7968 30.6611 57.4253 30.6611C56.0544 30.6611 54.9431 31.7674 54.9431 33.1329C54.9431 34.4983 56.0544 35.6052 57.4253 35.6052C58.7968 35.6052 59.9087 34.4983 59.9087 33.1329Z" fill="#FFD74F"/>
<path fill-rule="evenodd" clip-rule="evenodd" d="M64.6763 43.2926C64.6763 41.9272 63.565 40.8203 62.1935 40.8203C60.8226 40.8203 59.7107 41.9272 59.7107 43.2926C59.7107 44.658 60.8226 45.7644 62.1935 45.7644C63.565 45.7644 64.6763 44.658 64.6763 43.2926Z" fill="#FFD74F"/>
<path fill-rule="evenodd" clip-rule="evenodd" d="M55.3627 40.3013C55.3627 38.9359 54.2508 37.8296 52.8793 37.8296C51.5084 37.8296 50.3965 38.9359 50.3965 40.3013C50.3965 41.6667 51.5084 42.7736 52.8793 42.7736C54.2508 42.7736 55.3627 41.6667 55.3627 40.3013Z" fill="#FFD74F"/>
<path fill-rule="evenodd" clip-rule="evenodd" d="M70.5912 31.5264C70.5912 30.161 69.4793 29.0547 68.1084 29.0547C66.7375 29.0547 65.6256 30.161 65.6256 31.5264C65.6256 32.8918 66.7375 33.9981 68.1084 33.9981C69.4793 33.9981 70.5912 32.8918 70.5912 31.5264Z" fill="#FFD74F"/>
<path fill-rule="evenodd" clip-rule="evenodd" d="M87.2046 33.9981C87.2046 32.6333 86.0927 31.5264 84.7218 31.5264C83.3509 31.5264 82.239 32.6333 82.239 33.9981C82.239 35.3635 83.3509 36.4704 84.7218 36.4704C86.0927 36.4704 87.2046 35.3635 87.2046 33.9981Z" fill="#FFD74F"/>
<path fill-rule="evenodd" clip-rule="evenodd" d="M75.2092 40.3013C75.2092 38.9359 74.0974 37.8296 72.7264 37.8296C71.3555 37.8296 70.2437 38.9359 70.2437 40.3013C70.2437 41.6667 71.3555 42.7736 72.7264 42.7736C74.0974 42.7736 75.2092 41.6667 75.2092 40.3013Z" fill="#FFD74F"/>
<path fill-rule="evenodd" clip-rule="evenodd" d="M80.7334 27.4082H75.7678C75.7678 28.773 76.8797 29.8799 78.2506 29.8799C79.6221 29.8799 80.7334 28.773 80.7334 27.4082Z" fill="#FFD74F"/>
<path fill-rule="evenodd" clip-rule="evenodd" d="M86.5686 43.7619C86.5686 42.3965 85.4567 41.2896 84.0852 41.2896C82.7143 41.2896 81.603 42.3965 81.603 43.7619C81.603 45.1273 82.7143 46.2336 84.0852 46.2336C85.4567 46.2336 86.5686 45.1273 86.5686 43.7619Z" fill="#FFD74F"/>
<path fill-rule="evenodd" clip-rule="evenodd" d="M47.3341 27.4245H91.9505L82.239 20.7197L47.3341 27.4245Z" fill="#FFD74F"/>
<path fill-rule="evenodd" clip-rule="evenodd" d="M24.5961 26.3615H69.213V6.78662H24.5961V26.3615Z" fill="#FFB000"/>
<path fill-rule="evenodd" clip-rule="evenodd" d="M64.6763 12.4948C64.6763 11.1294 63.565 10.0225 62.1935 10.0225C60.8226 10.0225 59.7107 11.1294 59.7107 12.4948C59.7107 13.8602 60.8226 14.9671 62.1935 14.9671C63.565 14.9671 64.6763 13.8602 64.6763 12.4948Z" fill="#FFD74F"/>
<path fill-rule="evenodd" clip-rule="evenodd" d="M56.0731 18.1797C56.0731 16.8143 54.9613 15.708 53.5897 15.708C52.2188 15.708 51.1075 16.8143 51.1075 18.1797C51.1075 19.5451 52.2188 20.652 53.5897 20.652C54.9613 20.652 56.0731 19.5451 56.0731 18.1797Z" fill="#FFD74F"/>
<path fill-rule="evenodd" clip-rule="evenodd" d="M64.6763 22.1343C64.6763 20.7689 63.565 19.6626 62.1935 19.6626C60.8226 19.6626 59.7107 20.7689 59.7107 22.1343C59.7107 23.4997 60.8226 24.6066 62.1935 24.6066C63.565 24.6066 64.6763 23.4997 64.6763 22.1343Z" fill="#FFD74F"/>
<path fill-rule="evenodd" clip-rule="evenodd" d="M50.9208 10.8883C50.9208 9.52293 49.8095 8.41602 48.438 8.41602C47.0671 8.41602 45.9552 9.52293 45.9552 10.8883C45.9552 12.2531 47.0671 13.3601 48.438 13.3601C49.8095 13.3601 50.9208 12.2531 50.9208 10.8883Z" fill="#FFD74F"/>
<path fill-rule="evenodd" clip-rule="evenodd" d="M34.3079 13.3594C34.3079 11.994 33.196 10.8877 31.8245 10.8877C30.4535 10.8877 29.3423 11.994 29.3423 13.3594C29.3423 14.7248 30.4535 15.8317 31.8245 15.8317C33.196 15.8317 34.3079 14.7248 34.3079 13.3594Z" fill="#FFD74F"/>
<path fill-rule="evenodd" clip-rule="evenodd" d="M44.8131 19.9723C44.8131 18.6069 43.7018 17.5 42.3303 17.5C40.9594 17.5 39.8475 18.6069 39.8475 19.9723C39.8475 21.3377 40.9594 22.444 42.3303 22.444C43.7018 22.444 44.8131 21.3377 44.8131 19.9723Z" fill="#FFD74F"/>
<path fill-rule="evenodd" clip-rule="evenodd" d="M49.3874 23.8896C48.0159 23.8896 46.9041 24.996 46.9041 26.3614H51.8702C51.8702 24.996 50.759 23.8896 49.3874 23.8896Z" fill="#FFD74F"/>
<path fill-rule="evenodd" clip-rule="evenodd" d="M40.7784 6.76904H35.8129C35.8129 8.13445 36.9247 9.24136 38.2957 9.24136C39.6672 9.24136 40.7784 8.13445 40.7784 6.76904Z" fill="#FFD74F"/>
<path fill-rule="evenodd" clip-rule="evenodd" d="M34.9439 23.1231C34.9439 21.7577 33.8326 20.6514 32.4611 20.6514C31.0901 20.6514 29.9783 21.7577 29.9783 23.1231C29.9783 24.4885 31.0901 25.5954 32.4611 25.5954C33.8326 25.5954 34.9439 24.4885 34.9439 23.1231Z" fill="#FFD74F"/>
<path fill-rule="evenodd" clip-rule="evenodd" d="M24.5959 6.78599H69.2129L31.0335 0.257812L24.5959 6.78599Z" fill="#FFD74F"/>
</g>
</svg>
