<svg width="61" height="62" viewBox="0 0 61 62" fill="none" xmlns="http://www.w3.org/2000/svg">
<mask id="mask0_2_825" style="mask-type:luminance" maskUnits="userSpaceOnUse" x="0" y="0" width="61" height="61">
<path fill-rule="evenodd" clip-rule="evenodd" d="M0 0.1875H60.8561V61H0V0.1875Z" fill="white"/>
</mask>
<g mask="url(#mask0_2_825)">
<path fill-rule="evenodd" clip-rule="evenodd" d="M60.8561 30.5936C60.8561 47.3868 47.233 61 30.4282 61C13.6229 61 -0.00012207 47.3868 -0.00012207 30.5936C-0.00012207 13.8007 13.6229 0.1875 30.4282 0.1875C47.233 0.1875 60.8561 13.8007 60.8561 30.5936Z" fill="#C71C1C"/>
</g>
<mask id="mask1_2_825" style="mask-type:luminance" maskUnits="userSpaceOnUse" x="0" y="1" width="59" height="61">
<path fill-rule="evenodd" clip-rule="evenodd" d="M0 1.44678H58.5619V61.1865H0V1.44678Z" fill="white"/>
</mask>
<g mask="url(#mask1_2_825)">
<path fill-rule="evenodd" clip-rule="evenodd" d="M58.5619 31.3169C58.5619 47.8134 45.4525 61.1865 29.2812 61.1865C13.1099 61.1865 0 47.8134 0 31.3169C0 14.8199 13.1099 1.44678 29.2812 1.44678C45.4525 1.44678 58.5619 14.8199 58.5619 31.3169Z" fill="#FA4141"/>
</g>
<path fill-rule="evenodd" clip-rule="evenodd" d="M55 31.5002C55 45.5833 43.5834 57 29.5004 57C15.417 57 4 45.5833 4 31.5002C4 17.4167 15.417 6 29.5004 6C43.5834 6.00045 55 17.4167 55 31.5002Z" fill="#FF7A7A"/>
<path fill-rule="evenodd" clip-rule="evenodd" d="M54 31.5002C54 45.0313 43.2551 56 30.0002 56C16.7453 56 6 45.0313 6 31.5002C6 17.9692 16.7453 7 30.0002 7C43.2551 7.00045 54 17.9692 54 31.5002Z" fill="#CF0C0C"/>
<path fill-rule="evenodd" clip-rule="evenodd" d="M37 20.5147C37 24.1131 34.6469 30 29.2007 30C23.755 30 22 24.1131 22 20.5147C22 16.9167 25.3578 14 29.4996 14C33.6422 14 37 16.9167 37 20.5147Z" fill="#FA4141"/>
<path fill-rule="evenodd" clip-rule="evenodd" d="M36.8218 43.8213C33.5609 42.9033 28.8393 38.9814 30.2595 33.3814C31.6798 27.7814 37.4731 27.4789 40.7339 28.3969C43.9952 29.3153 45.7631 33.5122 44.6827 37.771C43.6023 42.0308 40.0831 44.7392 36.8218 43.8213Z" fill="#FA4141"/>
<path fill-rule="evenodd" clip-rule="evenodd" d="M22.1781 42.8213C25.4389 41.9029 30.161 37.9814 28.7403 32.3815C27.3205 26.7816 21.5272 26.4787 18.2659 27.3971C15.0046 28.315 13.2371 32.5118 14.3171 36.7711C15.3976 41.0308 18.9172 43.7392 22.1781 42.8213Z" fill="#FA4141"/>
<path fill-rule="evenodd" clip-rule="evenodd" d="M48.2525 14L31 30L51 17.674L48.2525 14Z" fill="#FF7A7A"/>
<path fill-rule="evenodd" clip-rule="evenodd" d="M28.989 33L32 55.9047L25 56L28.989 33Z" fill="#FF7A7A"/>
<path fill-rule="evenodd" clip-rule="evenodd" d="M28 30L7 21.734L10.0918 16L28 30Z" fill="#FF7A7A"/>
<path fill-rule="evenodd" clip-rule="evenodd" d="M33 31.4998C33 33.4325 31.2088 35 28.9998 35C26.7907 35 25 33.4325 25 31.4998C25 29.5671 26.7907 28 28.9998 28C31.2088 28 33 29.5671 33 31.4998Z" fill="#FF7A7A"/>
<path fill-rule="evenodd" clip-rule="evenodd" d="M28.9601 12.0056C29.108 12.6495 28.8348 13.8984 28.3038 13.9942C27.7724 14.0895 27.1844 12.9955 27.0369 12.3519C26.8889 11.708 27.1998 11.1084 27.7313 11.013C28.2622 10.9172 28.8125 11.362 28.9601 12.0056Z" fill="#FF7A7A"/>
<path fill-rule="evenodd" clip-rule="evenodd" d="M32.9845 12.2967C32.8886 12.95 32.1699 14.058 31.6292 13.9976C31.0886 13.9373 30.9304 12.7319 31.0264 12.0789C31.1219 11.4255 31.6383 10.9448 32.179 11.0051C32.7196 11.0654 33.0805 11.6437 32.9845 12.2967Z" fill="#FF7A7A"/>
<path fill-rule="evenodd" clip-rule="evenodd" d="M36.8166 13.698C36.5168 14.3321 35.5822 15.2093 35.1891 14.9549C34.7955 14.7005 35.0922 13.411 35.3921 12.7769C35.6923 12.1427 36.2539 11.8349 36.6471 12.0893C37.0406 12.3437 37.1165 13.0638 36.8166 13.698Z" fill="#FF7A7A"/>
<path fill-rule="evenodd" clip-rule="evenodd" d="M24.9603 13.0058C25.1078 13.6496 24.8346 14.8984 24.3036 14.9942C23.7722 15.0895 23.1842 13.9956 23.0367 13.3517C22.8891 12.7082 23.2001 12.1087 23.7311 12.0129C24.262 11.9175 24.8123 12.3619 24.9603 13.0058Z" fill="#FF7A7A"/>
<path fill-rule="evenodd" clip-rule="evenodd" d="M47.7245 37.9896C47.0708 37.9107 45.952 37.2191 46.0016 36.6743C46.0512 36.1291 47.2502 35.9385 47.9035 36.0169C48.5564 36.0958 49.0461 36.6011 48.9965 37.1458C48.947 37.6906 48.3777 38.0685 47.7245 37.9896Z" fill="#FF7A7A"/>
<path fill-rule="evenodd" clip-rule="evenodd" d="M45.3881 41.8569C44.7471 41.5848 43.8174 40.6663 44.0313 40.2386C44.2456 39.8109 45.5232 40.0363 46.1638 40.3084C46.8047 40.5797 47.1509 41.147 46.9365 41.5743C46.7222 42.002 46.0287 42.1286 45.3881 41.8569Z" fill="#FF7A7A"/>
<path fill-rule="evenodd" clip-rule="evenodd" d="M43.5871 45.4645C43.2011 44.9007 42.8084 43.496 43.1029 43.1061C43.3975 42.7157 44.2679 43.4871 44.6541 44.0513C45.0401 44.6147 45.1144 45.3888 44.8195 45.7791C44.525 46.1695 43.973 46.0288 43.5871 45.4645Z" fill="#FF7A7A"/>
<path fill-rule="evenodd" clip-rule="evenodd" d="M47.7243 33.9896C47.0709 33.9107 45.952 33.2191 46.0016 32.6743C46.0508 32.1291 47.25 31.9385 47.9037 32.0169C48.5567 32.0958 49.0461 32.6011 48.9965 33.1458C48.9473 33.6906 48.3776 34.0685 47.7243 33.9896Z" fill="#FF7A7A"/>
<path fill-rule="evenodd" clip-rule="evenodd" d="M12.6141 40.4845C13.1996 40.1189 14.5878 39.8065 14.9235 40.1452C15.2592 40.4835 14.4161 41.3443 13.8306 41.7107C13.2451 42.0763 12.4978 42.0984 12.1621 41.7598C11.8264 41.4214 12.029 40.8505 12.6141 40.4845Z" fill="#FF7A7A"/>
<path fill-rule="evenodd" clip-rule="evenodd" d="M10.8894 36.131C11.5224 35.8942 12.8197 35.965 12.9829 36.4534C13.1456 36.9426 12.1117 37.6641 11.4787 37.9013C10.8457 38.1381 10.2007 37.9342 10.0376 37.445C9.87478 36.9566 10.256 36.3683 10.8894 36.131Z" fill="#FF7A7A"/>
<path fill-rule="evenodd" clip-rule="evenodd" d="M10.2148 32.0015C10.8675 32.0317 12.0179 32.6436 11.9998 33.1951C11.9821 33.7463 10.8031 34.0284 10.1504 33.9977C9.49768 33.9676 8.98311 33.4961 9.00042 32.945C9.01812 32.3934 9.56205 31.9713 10.2148 32.0015Z" fill="#FF7A7A"/>
<path fill-rule="evenodd" clip-rule="evenodd" d="M15.6145 43.4847C16.2 43.1187 17.5877 42.8067 17.9234 43.145C18.2595 43.4837 17.416 44.3445 16.8309 44.7105C16.2455 45.0764 15.4981 45.0983 15.1621 44.7599C14.8264 44.4216 15.029 43.8503 15.6145 43.4847Z" fill="#FF7A7A"/>
<path fill-rule="evenodd" clip-rule="evenodd" d="M15 12.4998C15 13.3281 14.3281 14 13.4998 14C12.6714 14 12 13.3281 12 12.4998C12 11.6714 12.6714 11 13.4998 11C14.3281 11 15 11.6714 15 12.4998Z" fill="#FFD9D9"/>
<path fill-rule="evenodd" clip-rule="evenodd" d="M46 49.0002C46 49.5526 45.5522 50 44.9998 50C44.4474 50 44 49.5526 44 49.0002C44 48.4478 44.4474 48 44.9998 48C45.5522 48 46 48.4478 46 49.0002Z" fill="#FFD9D9"/>
</svg>
